<svg xmlns="http://www.w3.org/2000/svg" xmlns:xlink="http://www.w3.org/1999/xlink" viewBox="0 0 42 52.5" version="1.1" x="0px" y="0px"><title>team</title><desc>Created with Sketch.</desc><g stroke="none" stroke-width="1" fill="none" fill-rule="evenodd"><g transform="translate(-4.000000, -4.000000)" fill="#000000" fill-rule="nonzero"><path d="M27.4188266,13.2248669 C28.0313225,13.5073767 28.4838567,13.8479346 28.7456683,14.26438 L28.818,14.394 L28.9955785,14.4697824 C29.5923155,14.7477465 30.0460519,15.205648 30.3341238,15.8241698 L30.4155528,16.0145256 C30.8261301,17.0630065 30.8402016,18.4448039 30.5336306,19.9025831 L30.502158,20.0421648 C30.6571789,20.2445808 30.7529885,20.5788723 30.7529885,21.1265016 C30.7529885,22.1213044 30.4368266,23.2209527 30.0235174,23.6059992 C29.93845,24.4830553 29.6408953,25.2980777 29.1829402,25.9989556 C29.2172914,26.0652754 29.2414374,26.1381111 29.2537179,26.2150956 L29.2630321,26.3333881 L29.2630321,28.5552508 L29.2703788,28.6155601 C29.2896008,28.6930178 29.3450518,28.7569533 29.4190125,28.7869363 L29.4776768,28.8027381 L34.2345207,29.4822873 L34.4275162,29.5149742 C35.9548392,29.8145806 37.1396169,31.029836 37.4007762,32.5636383 L37.4295548,32.7654569 L38.0950596,38.5426913 L38.0999044,38.6445767 C38.092461,39.0139306 37.8130163,39.3301408 37.435815,39.3735923 C37.0586137,39.4170437 36.714591,39.1726535 36.623362,38.8146661 L36.604914,38.7143476 L35.9394091,32.9371133 L35.9137708,32.7697717 C35.7447373,31.8883304 35.0654874,31.1903432 34.1889708,30.9973928 L34.0223887,30.9672115 L29.2655448,30.2876624 L29.1518164,30.2657957 L24.8502997,33.2784381 L20.5381859,30.2600851 L20.3959408,30.3009647 L20.3959408,30.3009647 L20.2475777,30.3302102 L15.8223372,31.0073909 C14.8671963,31.1535532 14.1187548,31.8909339 13.9488187,32.8296107 L13.924911,32.9972698 L13.3273088,38.7065963 C13.2841881,39.1185593 12.9152699,39.417565 12.5033069,39.3744444 C12.1256742,39.3349171 11.8429569,39.0216294 11.8316737,38.6523729 L11.8354589,38.5504426 L12.4330611,32.841116 C12.6037456,31.2104438 13.811607,29.8878955 15.4027083,29.5592715 L15.5954382,29.5246513 L20.0206786,28.8474705 C20.1223852,28.8319067 20.2019305,28.7564113 20.2256204,28.6602268 L20.2328621,28.6003473 L20.2328621,26.3333881 C20.2328621,26.2402272 20.2498478,26.1510334 20.2808911,26.0687349 C19.7895719,25.3426012 19.472225,24.4881625 19.3891724,23.5661697 C18.9961488,23.1511543 18.6997658,22.0896847 18.6997658,21.1265016 C18.6997658,20.5829732 18.7941458,20.2495994 18.9471844,20.0467672 L18.8607001,19.5238168 C18.5525252,17.5354309 18.597176,16.200203 19.0660093,15.4245351 C19.6931258,14.3869934 20.8708449,13.5017123 22.1473394,12.9784556 C23.3260252,12.4952925 26.1796493,12.6533042 27.4188266,13.2248669 Z M36.0929589,14.6358035 C36.2134087,14.6358035 36.333815,14.6403844 36.4539166,14.6495362 C36.8366344,14.6786993 37.2672325,14.7470812 37.7475874,14.8540319 L37.8892316,14.8875397 L37.9853465,14.8714546 C40.4317546,14.4710188 42.7435372,16.0707779 43.2515226,18.4711301 L43.2916212,18.684973 C43.3204854,18.8613152 43.3390839,19.0391088 43.3473488,19.2174561 L43.3519875,19.4852802 L43.3110916,22.9889612 C43.3005786,23.8896345 42.8169539,24.7133132 42.0468212,25.1635027 L41.8890298,25.2484729 L41.7451516,25.3020498 L40.4278164,25.6427957 L40.4345194,25.7323286 L40.4345194,26.1000905 L40.4436803,26.1672424 C40.4616318,26.2316411 40.5048443,26.2863734 40.5633206,26.3187768 L40.6265145,26.3432682 L42.0444778,26.6814935 L42.2446514,26.7348359 C43.6958645,27.162767 44.7720112,28.3912425 45.0058061,29.8901627 L45.0324222,30.0961875 L45.2188576,31.9126841 L45.2224374,32.0146219 C45.2104102,32.3838549 44.9270622,32.6965723 44.5493506,32.7353385 C44.171639,32.7741048 43.8306762,32.5254634 43.7438976,32.1663712 L43.7266961,32.0658315 L43.5402607,30.2493349 L43.5147518,30.0661543 C43.3575026,29.1843467 42.7234656,28.460653 41.8699924,28.1888158 L41.6964482,28.1405601 L40.2784849,27.8023349 L40.1335362,27.7611435 C39.5616317,27.5717828 39.1334277,27.1029368 38.9882335,26.531052 C38.4777714,26.786557 37.9005919,26.9293929 37.2900512,26.9293929 C36.6942414,26.9293929 36.1302024,26.7933664 35.6272955,26.5506749 C35.5374713,27.1974968 35.0900882,27.744473 34.4673902,27.9592447 L34.3245008,28.0018393 L32.6750609,28.4184779 C32.273461,28.5199196 31.8656652,28.2765933 31.7642235,27.8749935 C31.6712353,27.5068603 31.8679479,27.1335208 32.2107133,26.9957181 L32.3077079,26.9641561 L33.9571479,26.5475175 C34.0459504,26.5250865 34.1134846,26.4566908 34.1369462,26.3716111 L34.1459224,26.3051305 L34.1459224,25.7323286 C34.1459224,25.663293 34.1552498,25.5964359 34.1727131,25.5329488 L33.0577539,25.2410752 C32.0880864,24.9060044 31.4198207,24.0250411 31.3485618,23.0130883 L31.3422441,22.8332331 L31.3422441,19.3864937 C31.3422441,16.762757 33.4692261,14.6358035 36.0929589,14.6358035 Z M14.9228584,15.0416499 C15.3952443,15.2595348 15.7542768,15.5257631 15.972488,15.8562646 L16.018,15.934 L16.1299106,15.9833614 C16.5926327,16.208415 16.9482261,16.5708567 17.176055,17.053098 L17.2472377,17.218258 C17.5642398,18.0277784 17.578637,19.075191 17.3520986,20.1773135 L17.2904801,20.4538779 L17.220047,20.4362345 C17.282161,20.5869444 17.3181015,20.7959601 17.3181015,21.0850039 C17.3181015,21.8238565 17.0832615,22.6405866 16.7762777,22.9264637 C16.6919545,23.7970082 16.3255979,24.5853198 15.7696254,25.1989128 L15.7697555,26.2048916 L15.7772929,26.2659746 C15.7970055,26.3443477 15.8538204,26.4086833 15.9291536,26.4379378 L15.9888354,26.4529721 L18.3634582,26.7489388 L18.4636006,26.7683198 C18.8207232,26.8628773 19.0619004,27.2091601 19.0149395,27.5859406 C18.9679786,27.9627211 18.6491808,28.2392101 18.2797736,28.2432149 L18.1779376,28.2374219 L15.8033149,27.9414553 L15.6510795,27.9156927 C14.9021369,27.7549131 14.3434074,27.122222 14.2764918,26.3591444 L14.2711032,26.232779 C13.8242285,26.4071954 13.3379428,26.5029349 12.8292959,26.5029349 C12.3418404,26.5029349 11.8749217,26.4150067 11.4435351,26.2541458 C11.4434181,27.069211 10.8926729,27.7645336 10.1220631,27.9586434 L9.97507802,27.9890704 L8.44102751,28.2392349 C7.47929592,28.3960689 6.73470088,29.1516963 6.58187492,30.101267 L6.56112481,30.2707692 L6.4152399,32.0001395 C6.38042165,32.4128871 6.01759785,32.7192593 5.60485027,32.6844411 C5.22649833,32.6525244 4.9375312,32.3449919 4.91881637,31.9760374 L4.92054869,31.8740515 L5.0664336,30.1446812 C5.20542077,28.4970792 6.40478558,27.143382 8.00561977,26.795645 L8.19960476,26.7587907 L9.73365527,26.5086261 C9.83444103,26.4921906 9.91291919,26.4168975 9.93627897,26.3213417 L9.94341815,26.2618854 L9.94288323,25.2571077 C9.35024409,24.6286179 8.9606041,23.8066056 8.87877877,22.8958863 C8.5867924,22.5879028 8.36687932,21.7999896 8.36687932,21.0850039 C8.36687932,20.8924728 8.38282556,20.7354489 8.41183928,20.6075163 L8.37733205,20.4113933 C8.05587888,18.6200015 8.05587888,17.4418767 8.47367792,16.7506431 C8.96340461,15.9404078 9.87072132,15.2583859 10.8539805,14.8553313 C11.7812495,14.4752281 13.9558929,14.5956432 14.9228584,15.0416499 Z M24.7086101,28.421989 C23.606808,28.421989 22.5829257,28.0883748 21.7324676,27.5166508 L21.7328621,28.6003473 C21.7328621,28.8078499 21.6964931,29.0078916 21.6293952,29.1939035 L24.85072,31.4473306 L27.9265804,29.2944278 C27.8424254,29.1140564 27.7882475,28.9174585 27.7699426,28.7114322 L27.7630321,28.5552508 L27.7641851,27.4622766 C26.8984371,28.0671219 25.8449654,28.421989 24.7086101,28.421989 Z M26.573941,18.5591925 L26.4,18.353 L26.2198641,18.4175191 C25.7071574,18.6032258 25.0918523,18.843633 24.37864,19.1378797 C23.2931848,19.5857008 22.2725754,19.8669922 21.2998731,19.9726488 L21.022,19.997 L20.9858951,20.1241997 L20.7254391,21.1398276 L20.201,21.192 L20.2031364,21.2707549 C20.2273276,21.8027456 20.3758867,22.3555451 20.4577633,22.5044741 L20.4782965,22.5347587 L20.8363996,22.9128996 L20.8831234,23.4315954 C21.0604026,25.3996258 22.71741,26.921989 24.7086101,26.921989 C26.6233934,26.921989 28.2305466,25.5137986 28.5067414,23.6550437 L28.5305235,23.4611908 L28.5853686,22.895731 L29.0010462,22.508478 C29.0413978,22.4708857 29.2240466,21.8528691 29.25,21.2620781 L29.25,21.203 L28.6965792,21.1611261 L28.443,20.175 L28.4002064,20.1512772 C27.8578555,19.8416334 27.4198523,19.48053 26.9284247,18.9550131 L26.7413269,18.7500167 L26.573941,18.5591925 Z M37.802,20.728 L37.7837735,20.7437479 C37.3977244,21.0288565 37.0089662,21.2719078 36.6167458,21.4722904 C36.2259555,21.6719423 35.7974835,21.8467068 35.3311396,21.9977614 L34.959,22.11 L34.9594452,23.0987869 C34.9594452,24.3323135 35.9177506,25.3420158 37.1304836,25.4240161 L37.2900512,25.4293929 C38.5235777,25.4293929 39.53328,24.4710875 39.6152804,23.2583545 L39.6206571,23.0987869 L39.62,22.066 L39.4068136,21.9496042 C38.8219859,21.617895 38.3206535,21.2484042 37.9083214,20.8388409 L37.802,20.728 Z M14.0508555,19.5771682 L13.965,19.479 L13.8819095,19.5101843 C13.6167618,19.60919 13.317727,19.7261314 12.986195,19.8607534 L12.7314745,19.9650311 C12.01465,20.260768 11.3308469,20.4634302 10.667286,20.5673335 L10.392,20.604 L10.1561697,21.454716 L9.901,21.479 L9.90817078,21.5255758 C9.93557509,21.6937371 9.96697223,21.8256108 9.9695251,21.8573541 L10.3260977,22.2422944 L10.3727608,22.7616566 C10.4862602,24.0249096 11.5505536,25.0029349 12.8292959,25.0029349 C14.0458648,25.0029349 15.0692388,24.1174133 15.2621646,22.9436375 L15.2832654,22.7818466 L15.3380651,22.2160997 L15.7232206,21.8558062 C15.6937017,21.8793121 15.689682,21.8713764 15.6969891,21.8414166 L15.7225064,21.7549216 C15.7374368,21.7038212 15.7508767,21.6500316 15.7626382,21.5946834 L15.779,21.497 L15.4855842,21.4741826 L15.269,20.63 L15.0936439,20.5189396 C14.7906429,20.3151493 14.5184983,20.0771478 14.2278557,19.7700196 L14.0508555,19.5771682 Z M36.0929589,16.1358035 C34.3595573,16.1358035 32.9430351,17.492549 32.8473915,19.2020365 L32.8422441,19.3864999 L32.8422441,22.8332331 C32.8422441,23.2393009 33.0763221,23.6047615 33.3941535,23.7647744 L33.4918652,23.80645 L33.5264632,23.815933 C33.4824659,23.5836239 33.4594452,23.3438938 33.4594452,23.0987869 L33.4594452,21.6623097 C33.4594452,21.4041914 33.4849749,21.1520359 33.533647,20.9082305 C34.4888654,20.7236039 35.2890296,20.4661895 35.9343104,20.1365202 C36.6607688,19.7653779 37.3984836,19.1966164 38.1474549,18.4302359 C38.4460072,19.5054648 39.4230095,20.3960046 41.078462,21.1018553 C41.1067635,21.2847218 41.1206571,21.4718932 41.1206571,21.6623097 L41.1206571,23.0987869 C41.1206571,23.3877605 41.088659,23.6692606 41.0280126,23.9399371 L41.2782316,23.8745397 L41.3380197,23.838551 C41.5912982,23.6714632 41.7604644,23.4026753 41.8015537,23.1020426 L41.8111937,22.971454 L41.8520897,19.4677729 C41.8542024,19.2867649 41.8405612,19.1059163 41.8113204,18.9272733 C41.5425257,17.2851083 40.0375365,16.1535362 38.4031989,16.3280261 L38.2276467,16.3517554 L37.8339423,16.4161982 L37.6854726,16.3798912 C37.1593734,16.2512379 36.7097839,16.1733819 36.3399467,16.1452002 C36.2577663,16.138938 36.1753775,16.1358035 36.0929589,16.1358035 Z M11.4229117,16.2432497 C10.7138347,16.5339123 10.0605892,17.0249512 9.75740427,17.5265598 C9.63714331,17.7255272 9.60640725,18.2836747 9.70494181,19.1488682 L9.48475098,19.1466967 C10.2622264,19.1827213 11.1537764,18.9932908 12.1594007,18.5784051 L12.6878986,18.3638781 L13.2174252,18.1575573 C13.7997806,17.9365248 14.2581461,17.7843553 14.5925217,17.701049 C14.6134909,17.8780677 14.8059819,18.1705197 15.1699946,18.5784051 C15.4595362,18.9028438 15.6923577,19.1198602 15.9716667,19.3010243 C16.0408167,18.6889895 16.0006076,18.1485061 15.8505102,17.7652062 C15.7543706,17.5196969 15.6106322,17.3738331 15.3776328,17.2921046 L15.2721896,17.2609013 L14.7986329,17.1438074 L14.7136775,16.6634436 C14.7113481,16.6502726 14.6025579,16.5457843 14.2946022,16.4037417 C13.6905631,16.1251325 11.946634,16.0285671 11.4229117,16.2432497 Z M22.7162706,14.366374 C21.7139583,14.7772387 20.7903103,15.4715367 20.3497357,16.2004517 C20.1550383,16.5225716 20.1050605,17.3114563 20.2393696,18.5152058 L20.1568205,18.5140294 C21.2150334,18.5727693 22.4316153,18.3185107 23.8065663,17.7512537 C25.2960965,17.1367252 26.3881987,16.7429254 27.082873,16.5698543 C27.1111089,16.8082179 27.3703066,17.2020177 27.860466,17.7512537 C28.3316927,18.279275 28.6913476,18.5959904 29.1848037,18.8715559 C29.3008809,17.9608004 29.2477893,17.1461734 29.0188253,16.5614737 C28.8599242,16.155692 28.6062397,15.9042245 28.2140939,15.769843 L28.0604635,15.7248656 L27.5869069,15.6077717 L27.5019515,15.1274079 C27.480889,15.0083144 27.2746636,14.8102436 26.7905704,14.5869587 C25.9143195,14.1827935 23.4914096,14.0486314 22.7162706,14.366374 Z"/></g></g><text x="0" y="57" fill="#000000" font-size="5px" font-weight="bold" font-family="'Helvetica Neue', Helvetica, Arial-Unicode, Arial, Sans-serif">Created by  Boris</text><text x="0" y="62" fill="#000000" font-size="5px" font-weight="bold" font-family="'Helvetica Neue', Helvetica, Arial-Unicode, Arial, Sans-serif">from the Noun Project</text></svg>