<svg xmlns="http://www.w3.org/2000/svg" version="1.1" viewBox="-5.0 -10.0 110.0 135.0">
 <g>
  <path d="m29.289 48.527c-7.875-2.7109-8.0195-10.688-8.0234-11.023 0-0.86328-0.69922-1.5625-1.5625-1.5625s-1.5625 0.69922-1.5625 1.5625c0 3.1016 1.5469 9.1016 7.0078 12.5-5.457 3.3984-7.0078 9.3984-7.0078 12.5 0 0.86328 0.69922 1.5625 1.5625 1.5625s1.5625-0.69922 1.5625-1.5625c0-0.082031 0.09375-8.293 8.0234-11.023 0.63281-0.21875 1.0547-0.8125 1.0547-1.4766 0-0.66406-0.42188-1.2617-1.0547-1.4766z"/>
  <path d="m46.875 40.625c-3.957-5.0508-10.277-6.2266-10.371-6.2383-0.86719-0.078125-1.6211 0.53125-1.7148 1.3867-0.09375 0.85547 0.53125 1.625 1.3867 1.7188 0.43359 0.046874 10.617 1.3008 10.699 12.5-0.082031 11.219-10.266 12.473-10.695 12.52-0.85938 0.089843-1.4805 0.85938-1.3906 1.7148 0.082032 0.80469 0.76172 1.3984 1.5508 1.3984 0.054687 0 0.10938-0.003906 0.16406-0.007812 0.09375-0.007813 6.4141-1.1875 10.371-6.2461v0.003906h7.8125v-18.75h-7.8125v-0.003906z"/>
  <path d="m64.062 23.441c0 4.1641-6.25 4.1641-6.25 0 0-4.168 6.25-4.168 6.25 0"/>
  <path d="m64.062 76.566c0 4.1641-6.25 4.1641-6.25 0 0-4.168 6.25-4.168 6.25 0"/>
  <path d="m73.438 68.754c1.7227 0 3.125-1.4023 3.125-3.125s-1.4023-3.125-3.125-3.125c-0.85938 0-1.6406 0.35156-2.207 0.91406v0.003906h-0.003907c-0.5625 0.56641-0.91406 1.3438-0.91406 2.207 0 1.7227 1.4023 3.125 3.125 3.125z"/>
  <path d="m71.23 36.586v0.003906c0.56641 0.5625 1.3438 0.91406 2.207 0.91406 1.7227 0 3.125-1.4023 3.125-3.125s-1.4023-3.125-3.125-3.125-3.125 1.4023-3.125 3.125c0 0.85938 0.35156 1.6406 0.91406 2.207h0.003907z"/>
  <path d="m99.309 60.188-8.3711-5.6055c0.34766-3.0586 0.35156-6.1328 0.007812-9.168l8.3633-5.5977c0.61719-0.41406 0.85938-1.207 0.57422-1.8984l-6.0664-14.648c-0.28516-0.6875-1.0039-1.0781-1.7461-0.93359l-9.8711 1.9531c-1.9023-2.3828-4.0781-4.5547-6.4844-6.4766l1.957-9.8828c0.14453-0.73047-0.24609-1.4609-0.9375-1.7461l-14.652-6.0625c-0.66406-0.27734-1.4375-0.0625-1.8633 0.52734l-6.3281 8.7305h-4.1172c-0.42578-1.5547-1.4336-3.2109-2.8789-4.6523-1.7617-1.7578-5.7344-4.707-12.562-4.707h-0.035156c-8.0508 0.015625-13.828 5.0625-14.555 12.453-3.3281 0.12109-10.594 1.5625-13.055 11.555-1.0234 4.1953-0.84766 7.9844 0.51953 11.289-3.5391 2.3125-7.2031 6.6406-7.2031 14.695 0 8.0508 3.6641 12.383 7.2031 14.695-1.3672 3.3047-1.543 7.0938-0.51562 11.289 2.4531 9.9766 9.7188 11.426 13.051 11.551 0.72656 7.4062 6.5078 12.453 14.562 12.453 9.1719 0 14.336-5.3906 15.465-9.3594h4.1289l6.3281 8.7305c0.30078 0.41406 0.77734 0.64453 1.2656 0.64453 0.20312 0 0.40625-0.039063 0.59766-0.11719l14.648-6.0664c0.6875-0.28516 1.0781-1.0156 0.9375-1.7461l-1.9531-9.8711c2.3828-1.9023 4.5547-4.0781 6.4766-6.4883l9.8828 1.9531c0.74219 0.14453 1.4609-0.25 1.7461-0.93359l6.0664-14.648c0.28516-0.6875 0.042969-1.4805-0.57422-1.8984zm-21.184-3.9375c-2.9062 0-5.3281-2-6.0273-4.6875h-14.285v3.125h6.25c0.41406 0 0.8125 0.16406 1.1055 0.45703l5.1172 5.1172c0.92969-0.54688 2-0.88672 3.1562-0.88672 3.4453 0 6.25 2.8047 6.25 6.25s-2.8047 6.25-6.25 6.25c-3.4453 0-6.25-2.8047-6.25-6.25 0-1.1562 0.33594-2.2266 0.88672-3.1562l-4.6562-4.6562h-5.6016v2.4766l4.2305 4.2305c0.29297 0.29297 0.45703 0.69141 0.45703 1.1055v4.9102c2.6875 0.69922 4.6875 3.125 4.6875 6.0273 0 3.4453-2.8047 6.25-6.25 6.25-3.4453 0-6.25-2.8047-6.25-6.25 0-2.9023 2-5.3281 4.6875-6.0273v-4.2617l-3.7734-3.7734h-8.7266v3.125h6.25c0.86328 0 1.5625 0.69922 1.5625 1.5625s-0.69922 1.5625-1.5625 1.5625h-6.25v20.312c0 2.2188-3.7422 7.7969-12.578 7.7969-6.8867 0-11.516-4.3906-11.516-10.922 0-10.023 7.6406-12.469 7.957-12.562 0.82812-0.24219 1.3008-1.1133 1.0586-1.9414-0.24219-0.82812-1.1094-1.3008-1.9375-1.0586-0.097657 0.03125-9.3359 2.9102-10.121 14.055-2.5117-0.085938-8.0469-1.207-10.012-9.1914-0.83594-3.4102-0.73438-6.4531 0.26953-9.0781 1.9219 0.79688 3.3867 1.0039 3.4609 1.0156 0.070312 0.007813 0.13672 0.011719 0.20312 0.011719 0.76953 0 1.4375-0.57031 1.543-1.3555 0.11328-0.85156-0.48438-1.6367-1.3359-1.7578-0.015625 0-1.8125-0.25781-3.9102-1.375-3.1172-1.6641-6.8281-5.2148-6.8281-12.699s3.7148-11.035 6.8281-12.699c2.1016-1.1172 3.8945-1.375 3.9102-1.3789 0.85156-0.11328 1.4531-0.89844 1.3398-1.75-0.10938-0.85547-0.89844-1.4531-1.75-1.3477-0.074219 0.007812-1.5391 0.21875-3.4609 1.0156-1.0078-2.625-1.1055-5.668-0.27344-9.0781 1.9688-7.9844 7.5078-9.1055 10.016-9.1914 0.78516 11.145 10.023 14.023 10.121 14.055 0.14844 0.042969 0.29297 0.0625 0.44141 0.0625 0.67188 0 1.2891-0.4375 1.4922-1.1172 0.24609-0.82422-0.22266-1.6914-1.043-1.9453-0.32422-0.097656-7.9648-2.543-7.9648-12.566 0-6.5156 4.6289-10.906 11.52-10.922h0.03125c5.6992 0 8.9336 2.375 10.355 3.7969 1.5117 1.5078 2.1875 3.0977 2.1875 4.0039v20.312h6.25c0.86328 0 1.5625 0.69922 1.5625 1.5625s-0.69922 1.5625-1.5625 1.5625h-6.25v3.125h8.7266l3.7734-3.7734v-4.2617c-2.6875-0.69922-4.6875-3.125-4.6875-6.0273 0-3.4453 2.8047-6.25 6.25-6.25 3.4453 0 6.25 2.8047 6.25 6.25 0 2.9023-2 5.3281-4.6875 6.0273v4.9102c0 0.41406-0.16406 0.8125-0.45703 1.1055l-4.2305 4.2305v2.4766h5.6016l4.6562-4.6562c-0.54688-0.92969-0.88672-2-0.88672-3.1562 0-3.4453 2.8047-6.25 6.25-6.25 3.4453 0 6.25 2.8047 6.25 6.25s-2.8047 6.25-6.25 6.25c-1.1562 0-2.2266-0.33594-3.1562-0.88672l-5.1172 5.1172c-0.29297 0.29297-0.6875 0.45703-1.1055 0.45703h-6.25v3.125h14.285c0.69922-2.6875 3.125-4.6875 6.0273-4.6875 3.4453 0 6.25 2.8047 6.25 6.25s-2.8047 6.25-6.25 6.25z"/>
  <path d="m81.25 50.004c0 4.1641-6.25 4.1641-6.25 0 0-4.168 6.25-4.168 6.25 0"/>
 </g>
</svg>