<svg xmlns="http://www.w3.org/2000/svg" version="1.1" viewBox="-5.0 -10.0 110.0 135.0">
 <path d="m75.93 8.543c-14.238-4.7266-37.621-4.7266-51.859 0-12.898 4.2812-12.898 9.7773 0 14.059 14.238 4.7266 37.621 4.7266 51.859 0 12.898-4.2812 12.898-9.7773 0-14.059zm-61.555 65.008v10.875c0 2.5391 3.7031 5.0391 9.6953 7.0312 14.238 4.7266 37.621 4.7266 51.859 0 5.9883-1.9883 9.6953-4.4883 9.6953-7.0312v-10.875c-13.625 10.625-57.625 10.625-71.25 0zm0-17.211c13.625 10.625 57.625 10.625 71.25 0v10.875c0 2.5391-3.7031 5.0391-9.6953 7.0312-14.238 4.7266-37.621 4.7266-51.859 0-5.9883-1.9883-9.6953-4.4883-9.6953-7.0312zm0-17.215v10.875c0 2.5391 3.7031 5.0391 9.6953 7.0312 14.238 4.7266 37.621 4.7266 51.859 0 5.9883-1.9883 9.6953-4.4883 9.6953-7.0312v-10.875c-13.625 10.625-57.625 10.625-71.25 0zm71.25-17.215v10.875c0 2.5391-3.7031 5.0391-9.6953 7.0273-14.238 4.7266-37.621 4.7266-51.859 0-5.9883-1.9883-9.6953-4.4883-9.6953-7.0273v-10.875c13.629 10.625 57.621 10.625 71.25 0z" fill-rule="evenodd"/>
<text x="0.0" y="117.5" font-size="5.0" font-weight="bold" font-family="Arbeit Regular, Helvetica, Arial-Unicode, Arial, Sans-serif" fill="#000000">Created by Elin Erkani</text><text x="0.0" y="122.5" font-size="5.0" font-weight="bold" font-family="Arbeit Regular, Helvetica, Arial-Unicode, Arial, Sans-serif" fill="#000000">from Noun Project</text></svg>