<svg xmlns="http://www.w3.org/2000/svg" xmlns:xlink="http://www.w3.org/1999/xlink" viewBox="0 0 61 81" fill="#fff" fill-rule="evenodd" stroke="#000" stroke-linecap="round" stroke-linejoin="round"><use xlink:href="#A" x=".5" y=".5"/><symbol id="A" overflow="visible"><g stroke="none"><path d="M51.147 9.619h0C33.115 7.696 30 0 30 0S25.902 9.94 0 9.94v41.042c0 4.97 2.787 9.619 6.722 13.627h0C15.574 73.748 30 80 30 80s30-12.826 30-29.018V9.94c-3.279 0-6.23-.16-8.853-.321z" fill="#3999c6"/><path d="M37.541 26.453L51.147 9.619C33.115 7.696 30 0 30 0S25.902 9.94 0 9.94v41.042c0 4.97 2.787 9.619 6.722 13.627l10.164-12.505 20.655-25.651z" fill="#59b4d9" opacity=".4"/><path d="M6.23 39.118v9.779c0 4.008 2.295 7.696 5.41 10.902 7.049 7.375 18.524 12.184 18.524 12.184V39.118H6.23z" opacity=".3"/><path d="M30 71.984s23.934-10.26 23.934-23.086v-9.779H30v32.866z" opacity=".7"/><path d="M30.001 8.176h0s-3.279 8.016-23.935 8.016v22.926h23.935V8.176z" opacity=".7"/><path d="M46.721 15.872C32.459 14.269 30 8.337 30 8.337v30.782h23.934V16.193c-2.623 0-5.082-.16-7.213-.32z" opacity=".3"/><path d="M21.839 46.894h-2.913l-7.677-11.551c-.195-.292-.354-.596-.482-.909H10.7c.06.335.09 1.056.09 2.159v10.302H8.213V31.179h3.105l7.418 11.277.605.965h.044c-.074-.417-.111-1.122-.111-2.115V31.181h2.566v15.713zm3.24-.626v-2.685a4.12 4.12 0 0 0 .88.591 7.17 7.17 0 0 0 1.082.444 8.99 8.99 0 0 0 1.142.279c.381.066.733.099 1.054.099 1.121 0 1.956-.183 2.505-.548s.823-.895.823-1.589c0-.372-.092-.696-.274-.97s-.44-.524-.769-.75a8.14 8.14 0 0 0-1.161-.652l-1.43-.652-1.524-.866c-.47-.292-.88-.616-1.228-.97a4.07 4.07 0 0 1-.818-1.201c-.198-.446-.296-.968-.296-1.568 0-.737.171-1.379.51-1.924a4.24 4.24 0 0 1 1.344-1.348 6.25 6.25 0 0 1 1.9-.789 9.22 9.22 0 0 1 2.174-.258c1.68 0 2.905.186 3.675.559v2.575c-.911-.643-2.084-.965-3.518-.965-.397 0-.79.037-1.182.109s-.744.194-1.054.362a2.26 2.26 0 0 0-.756.646c-.194.263-.29.585-.29.959 0 .351.074.654.224.909s.369.489.656.702.639.419 1.054.619l1.44.652 1.585.899c.499.314.934.662 1.312 1.041a4.53 4.53 0 0 1 .897 1.267c.22.465.331.992.331 1.584 0 .797-.166 1.468-.494 2.017a3.91 3.91 0 0 1-1.329 1.337c-.556.343-1.195.592-1.921.745s-1.49.231-2.297.231c-.268 0-.6-.021-.992-.059l-1.205-.175-1.166-.281c-.365-.111-.66-.237-.885-.377zm25.775-.448c-1.674.893-3.538 1.337-5.592 1.337-2.375 0-4.3-.723-5.772-2.171s-2.208-3.36-2.208-5.743c0-2.434.805-4.43 2.417-5.99s3.654-2.339 6.134-2.339c1.785 0 3.287.257 4.505.768v2.686c-1.233-.803-2.7-1.206-4.405-1.206-1.711 0-3.113.551-4.208 1.654s-1.641 2.532-1.641 4.285c0 1.804.471 3.224 1.412 4.257s2.22 1.552 3.833 1.552c1.107 0 2.062-.208 2.869-.625v-3.737h-3.384v-2.191h6.041v7.463z" fill="#3e3e3e"/></g></symbol></svg>