<svg xmlns="http://www.w3.org/2000/svg" xmlns:xlink="http://www.w3.org/1999/xlink" viewBox="0 0 146 135" fill="#fff" fill-rule="evenodd" stroke="#000" stroke-linecap="round" stroke-linejoin="round"><use xlink:href="#C" x=".5" y=".5"/><defs><linearGradient id="A" x1="50.00%" y1="0.00%" x2="50.00%" y2="100.00%"><stop offset="23%" stop-color="#5ea0ef"/><stop offset="32%" stop-color="#5b9fee"/><stop offset="48%" stop-color="#509aeb"/><stop offset="56.99999999999999%" stop-color="#3f92e6"/><stop offset="75%" stop-color="#2688df"/><stop offset="93%" stop-color="#127fd9"/></linearGradient><linearGradient id="B" x1="50.00%" y1="-0.00%" x2="50.00%" y2="100.00%"><stop offset="2%" stop-color="#5ea0ef"/><stop offset="14.000000000000002%" stop-color="#5b9fee"/><stop offset="23%" stop-color="#5b9fee"/><stop offset="34%" stop-color="#509aeb"/><stop offset="44%" stop-color="#3f92e6"/><stop offset="63%" stop-color="#2688df"/><stop offset="93%" stop-color="#127fd9"/></linearGradient></defs><symbol id="C" overflow="visible"><g stroke="none" fill-rule="nonzero"><path d="M66.149 15h9v56.7h-9z" fill="#7a7a7a"/><path d="M83.849 13.2c0 7.29-5.91 13.2-13.2 13.2s-13.2-5.91-13.2-13.2S63.359 0 70.649 0s13.2 5.91 13.2 13.2z" fill="#1490df"/><path d="M68.848 68.7h-14.4c-9.345.071-17.082 7.282-17.809 16.599s5.798 17.641 15.019 19.161c-.33-2.224-.27-4.488.18-6.69a11.37 11.37 0 0 1 2.61-22.47h14.4c6.296 0 11.4 5.104 11.4 11.4s-5.104 11.4-11.4 11.4h-3.96c-.538 1.125-.824 2.353-.84 3.6.004 1.026.197 2.044.57 3h4.23c9.941 0 18-8.059 18-18s-8.059-18-18-18z" fill="url(#A)"/><path d="M89.639 83.94a20.72 20.72 0 0 1 .21 2.76c.008 1.32-.122 2.637-.39 3.93a11.37 11.37 0 0 1-2.61 22.47h-14.4c-6.296 0-11.4-5.104-11.4-11.4s5.104-11.4 11.4-11.4h3.96a8.45 8.45 0 0 0 .84-3.6c-.004-1.026-.197-2.044-.57-3h-4.23c-9.941 0-18 8.059-18 18s8.059 18 18 18h14.4c9.345-.071 17.082-7.282 17.809-16.599S98.86 85.459 89.639 83.94z" fill="url(#B)"/><path d="M44.729 127.26l-3.3 3.33c-.879.876-2.301.876-3.18 0L1.319 93.75a4.53 4.53 0 0 1 0-6.39l3.33-3.3 40.08 40.02c.422.41.664.972.672 1.56s-.219 1.156-.63 1.578z" fill="#50e6ff"/><path d="M40.739 51.06l3.69 3.69c.876.879.876 2.301 0 3.18L5.009 97.47l-3.69-3.66a4.53 4.53 0 0 1 0-6.39l36.24-36.36c.879-.876 2.301-.876 3.18 0z" fill="#1490df"/><path d="M99.539 129.87c-.422-.41-.664-.972-.672-1.56a2.22 2.22 0 0 1 .63-1.578l.042-.042 40.11-39.99 3.33 3.33a4.53 4.53 0 0 1 0 6.39l-36.96 36.78c-.41.422-.972.664-1.56.672s-1.156-.219-1.578-.63l-.042-.042z" fill="#50e6ff"/><path d="M106.709 53.7l36.27 36.36a4.5 4.5 0 0 1 0 6.36l-3.69 3.69-39.45-39.54c-.863-.896-.863-2.314 0-3.21l3.69-3.66c.879-.876 2.301-.876 3.18 0z" fill="#1490df"/></g></symbol></svg>